<?xml version="1.0" encoding="utf-8"?>
<svg xmlns="http://www.w3.org/2000/svg" viewBox="140.2358 184.089 179.4986 29.9981" width="179.499px" height="29.9981px" xmlns:bx="https://boxy-svg.com">
  <defs>
    <linearGradient id="paint0_linear_4164_431773" x1="3.32561" y1="0.0265534" x2="4.41014" y2="0.0265534" gradientUnits="userSpaceOnUse" gradientTransform="matrix(1, 0, 0, 1, 140.236353, 184.089511)">
      <stop stop-color="#2DA17C"/>
      <stop offset="1" stop-color="#557ABC"/>
    </linearGradient>
    <linearGradient id="gradient-4-0" href="#gradient-4" gradientUnits="userSpaceOnUse" x1="154.39" y1="194.824" x2="154.39" y2="214.087"/>
    <linearGradient id="gradient-4" bx:pinned="true">
      <stop offset="0" style="stop-color: rgb(225, 39, 81);"/>
      <stop offset="1" style="stop-color: rgb(245, 130, 41);"/>
    </linearGradient>
    <linearGradient id="paint2_linear_4164_431773" x1="17.9535" y1="6.83516" x2="28.3682" y2="6.83516" gradientUnits="userSpaceOnUse" gradientTransform="matrix(1, 0, 0, 1, 140.236353, 184.089511)">
      <stop stop-color="#E12751"/>
      <stop offset="1" stop-color="#F58229"/>
    </linearGradient>
    <linearGradient id="paint3_linear_4164_431773" x1="0.295318" y1="6.92371" x2="12.3948" y2="6.92371" gradientUnits="userSpaceOnUse" gradientTransform="matrix(1, 0, 0, 1, 140.236353, 184.089511)">
      <stop stop-color="#E12751"/>
      <stop offset="1" stop-color="#F58229"/>
    </linearGradient>
    <linearGradient id="paint4_linear_4164_431773" x1="6.3048" y1="8.53724" x2="14.4066" y2="8.53724" gradientUnits="userSpaceOnUse" gradientTransform="matrix(1, 0, 0, 1, 140.236353, 184.089511)">
      <stop stop-color="#E12751"/>
      <stop offset="1" stop-color="#F58229"/>
    </linearGradient>
    <linearGradient id="paint5_linear_4164_431773" x1="15.8494" y1="11.283" x2="23.3916" y2="11.283" gradientUnits="userSpaceOnUse" gradientTransform="matrix(1, 0, 0, 1, 140.236353, 184.089511)">
      <stop stop-color="#E12751"/>
      <stop offset="1" stop-color="#F58229"/>
    </linearGradient>
    <linearGradient id="paint6_linear_4164_431773" x1="2.77305" y1="8.83158" x2="20.0259" y2="8.83158" gradientUnits="userSpaceOnUse" gradientTransform="matrix(1, 0, 0, 1, 140.236353, 184.089511)">
      <stop stop-color="#E12751"/>
      <stop offset="1" stop-color="#F58229"/>
    </linearGradient>
    <linearGradient id="paint7_linear_4164_431773" x1="21.9728" y1="10.9145" x2="26.0008" y2="10.9145" gradientUnits="userSpaceOnUse" gradientTransform="matrix(1, 0, 0, 1, 140.236353, 184.089511)">
      <stop stop-color="#E12751"/>
      <stop offset="1" stop-color="#F58229"/>
    </linearGradient>
    <linearGradient id="paint8_linear_4164_431773" x1="13.5126" y1="11.0888" x2="6.10007" y2="9.69725" gradientUnits="userSpaceOnUse" gradientTransform="matrix(1, 0, 0, 1, 140.236353, 184.089511)">
      <stop stop-color="#E12751"/>
      <stop offset="1" stop-color="#F58229"/>
    </linearGradient>
    <linearGradient id="paint9_linear_4164_431773" x1="13.2611" y1="13.9322" x2="12.1765" y2="18.1661" gradientUnits="userSpaceOnUse" gradientTransform="matrix(1, 0, 0, 1, 140.236353, 184.089511)">
      <stop stop-color="#E12751"/>
      <stop offset="1" stop-color="#F58229"/>
    </linearGradient>
    <linearGradient id="paint10_linear_4164_431773" x1="14.9193" y1="13.5672" x2="12.1563" y2="16.0474" gradientUnits="userSpaceOnUse" gradientTransform="matrix(1, 0, 0, 1, 140.236353, 184.089511)">
      <stop stop-color="#E12751"/>
      <stop offset="1" stop-color="#F58229"/>
    </linearGradient>
    <radialGradient id="gradient-4-1" href="#gradient-4" gradientUnits="userSpaceOnUse" cx="209.676" cy="187.653" r="82.25" spreadMethod="pad" gradientTransform="matrix(0.050134, -0.288778, 1.326012, 0.105451, 16.999118, 229.732451)"/>
  </defs>
  <path d="M 144.647 184.113 C 144.647 184.104 144.645 184.097 144.644 184.089 C 144.644 184.107 144.643 184.125 144.643 184.143 C 144.644 184.132 144.647 184.123 144.647 184.113 Z" fill="url(#paint0_linear_4164_431773)" id="object-0" transform="matrix(1.0000000000000002, 0, 0, 1.0000000000000002, 0, -1.4210854715202004e-14)"/>
  <path d="M 167.435 200.444 C 166.458 200.242 165.88 200.728 165.673 201.684 C 165.604 202.002 165.537 202.323 165.46 202.639 C 164.962 204.677 163.939 206.424 162.441 207.874 C 160.935 209.33 158.648 209.109 157.4 207.439 C 156.373 206.066 156.54 204.93 158 203.347 C 159.95 201.234 159.879 198.104 157.838 196.201 C 155.748 194.253 152.52 194.387 150.593 196.503 C 148.781 198.492 148.877 201.51 150.987 203.547 C 153.034 205.525 151.567 208.085 149.765 208.638 C 148.478 209.032 147.267 208.835 146.257 207.828 C 144.52 206.098 143.477 204.02 143.045 201.619 C 142.877 200.685 142.284 200.277 141.377 200.423 C 140.496 200.566 140.179 201.193 140.244 202.035 C 140.27 202.36 140.312 202.688 140.39 203.003 C 141.322 206.775 143.342 209.776 146.667 211.851 C 152.654 215.737 161.228 214.418 165.324 208.982 C 167.112 207.07 168.035 204.745 168.504 202.221 C 168.661 201.368 168.379 200.639 167.435 200.444 Z" style="fill: url(&quot;#gradient-4-0&quot;);" id="object-1" transform="matrix(1.0000000000000002, 0, 0, 1.0000000000000002, 0, -1.4210854715202004e-14)"/>
  <path d="M 167.751 196.662 C 167.597 196.583 167.48 196.436 167.445 196.252 C 167.218 195.072 166.829 193.928 166.292 192.852 C 165.747 191.763 165.056 190.758 164.237 189.866 C 163.201 188.737 161.98 187.805 160.608 187.097 C 159.961 186.764 159.286 186.484 158.597 186.263 C 158.29 186.163 158.12 185.835 158.219 185.527 C 158.317 185.219 158.646 185.05 158.955 185.148 C 159.704 185.389 160.44 185.694 161.144 186.057 C 162.639 186.828 163.97 187.843 165.1 189.074 C 165.992 190.047 166.745 191.142 167.338 192.329 C 167.924 193.5 168.346 194.745 168.594 196.03 C 168.655 196.348 168.447 196.654 168.13 196.716 C 167.995 196.743 167.863 196.72 167.751 196.662 Z" fill="url(#paint2_linear_4164_431773)" id="object-2" transform="matrix(1.0000000000000002, 0, 0, 1.0000000000000002, 0, -1.4210854715202004e-14)"/>
  <path d="M 140.849 197.207 C 140.632 197.095 140.5 196.854 140.538 196.599 C 140.769 195.072 141.248 193.597 141.962 192.214 C 142.554 191.066 143.296 190.008 144.167 189.068 C 145.28 187.867 146.583 186.873 148.044 186.116 C 149.27 185.48 150.579 185.026 151.935 184.764 C 152.253 184.703 152.56 184.911 152.621 185.228 C 152.682 185.545 152.475 185.852 152.157 185.913 C 150.911 186.153 149.709 186.571 148.584 187.155 C 147.243 187.851 146.047 188.761 145.026 189.863 C 144.227 190.726 143.546 191.697 143.003 192.75 C 142.348 194.019 141.909 195.373 141.697 196.773 C 141.649 197.093 141.35 197.313 141.031 197.265 C 140.965 197.255 140.903 197.235 140.849 197.207 Z" fill="url(#paint3_linear_4164_431773)" id="object-3" transform="matrix(1.0000000000000002, 0, 0, 1.0000000000000002, 0, -1.4210854715202004e-14)"/>
  <path d="M 146.858 195.418 C 146.57 195.27 146.458 194.917 146.606 194.629 C 146.932 193.996 147.333 193.404 147.795 192.869 C 148.245 192.349 148.754 191.881 149.313 191.475 C 150.035 190.951 150.83 190.537 151.676 190.246 C 152.433 189.985 153.221 189.825 154.018 189.77 C 154.34 189.748 154.619 189.992 154.642 190.314 C 154.664 190.636 154.42 190.915 154.098 190.938 C 153.403 190.985 152.717 191.125 152.058 191.352 C 151.321 191.606 150.629 191.966 150.001 192.423 C 149.516 192.774 149.072 193.182 148.682 193.634 C 148.28 194.099 147.933 194.614 147.648 195.166 C 147.498 195.454 147.145 195.566 146.858 195.418 Z" fill="url(#paint4_linear_4164_431773)" id="object-4" transform="matrix(1.0000000000000002, 0, 0, 1.0000000000000002, 0, -1.4210854715202004e-14)"/>
  <path d="M 162.654 200.69 C 162.434 200.576 162.302 200.329 162.346 200.072 C 162.446 199.49 162.479 198.894 162.443 198.302 C 162.41 197.747 162.319 197.193 162.17 196.657 C 162.037 196.176 161.858 195.707 161.636 195.262 C 161.414 194.811 161.147 194.383 160.845 193.985 C 160.458 193.479 160.011 193.021 159.515 192.623 C 158.644 191.927 157.609 191.412 156.527 191.141 C 156.215 191.064 156.024 190.744 156.102 190.43 C 156.181 190.116 156.499 189.927 156.813 190.005 C 158.056 190.317 159.245 190.908 160.246 191.707 C 160.817 192.165 161.332 192.692 161.777 193.274 C 162.125 193.73 162.431 194.224 162.686 194.741 C 162.94 195.253 163.145 195.792 163.298 196.343 C 163.469 196.959 163.575 197.595 163.612 198.232 C 163.652 198.913 163.614 199.598 163.5 200.268 C 163.445 200.587 163.143 200.801 162.824 200.747 C 162.764 200.738 162.706 200.718 162.654 200.69 Z" fill="url(#paint5_linear_4164_431773)" id="object-5" transform="matrix(1.0000000000000002, 0, 0, 1.0000000000000002, 0, -1.4210854715202004e-14)"/>
  <path d="M 159.945 188.42 C 158.925 187.894 157.839 187.523 156.719 187.317 C 155.727 187.135 154.711 187.084 153.701 187.166 C 152.952 187.226 152.206 187.36 151.483 187.562 C 150.839 187.742 150.208 187.98 149.605 188.267 C 148.934 188.587 148.292 188.972 147.696 189.413 C 147.081 189.867 146.51 190.385 145.997 190.951 C 145.721 191.256 145.458 191.581 145.215 191.915 C 144.87 192.39 144.557 192.898 144.286 193.424 C 143.804 194.36 143.45 195.354 143.237 196.377 C 143.122 196.927 143.049 197.49 143.016 198.053 C 143.015 198.086 143.014 198.119 143.012 198.152 C 143.026 198.469 143.288 198.72 143.607 198.714 C 143.922 198.71 144.174 198.457 144.184 198.146 C 144.184 198.136 144.187 198.127 144.187 198.117 C 144.187 198.115 144.186 198.113 144.186 198.111 C 144.216 197.608 144.281 197.106 144.384 196.615 C 144.576 195.696 144.893 194.802 145.328 193.961 C 145.572 193.488 145.853 193.03 146.164 192.603 C 146.382 192.303 146.619 192.011 146.867 191.737 C 147.328 191.228 147.842 190.763 148.395 190.355 C 148.93 189.959 149.508 189.613 150.112 189.325 C 150.655 189.067 151.224 188.853 151.802 188.691 C 152.454 188.508 153.125 188.388 153.799 188.333 C 154.708 188.26 155.62 188.306 156.512 188.47 C 157.518 188.655 158.494 188.989 159.412 189.462 C 159.7 189.61 160.052 189.498 160.201 189.21 C 160.345 188.922 160.232 188.568 159.945 188.42 Z" fill="url(#paint6_linear_4164_431773)" id="object-6" transform="matrix(1.0000000000000002, 0, 0, 1.0000000000000002, 0, -1.4210854715202004e-14)"/>
  <path d="M 166.137 197.24 C 166.024 196.397 165.818 195.565 165.524 194.766 C 165.254 194.03 164.909 193.318 164.498 192.652 C 164.126 192.051 163.699 191.483 163.227 190.961 C 163.01 190.722 162.64 190.703 162.4 190.92 C 162.161 191.137 162.142 191.507 162.36 191.747 C 162.784 192.215 163.168 192.727 163.501 193.267 C 163.871 193.866 164.182 194.506 164.425 195.169 C 164.689 195.888 164.875 196.638 164.976 197.396 C 165.034 197.822 165.061 198.25 165.066 198.678 L 165.07 198.679 C 165.076 198.836 165.143 198.975 165.249 199.076 C 165.252 199.079 165.255 199.081 165.258 199.084 C 165.282 199.105 165.307 199.126 165.334 199.144 C 165.343 199.151 165.353 199.154 165.363 199.16 C 165.385 199.173 165.407 199.185 165.431 199.196 C 165.449 199.203 165.468 199.207 165.487 199.213 C 165.504 199.218 165.521 199.225 165.539 199.228 C 165.577 199.235 165.615 199.239 165.656 199.239 C 165.969 199.237 166.221 198.991 166.236 198.683 C 166.236 198.663 166.237 198.644 166.236 198.625 C 166.23 198.162 166.198 197.699 166.137 197.24 Z" fill="url(#paint7_linear_4164_431773)" id="object-7" transform="matrix(1.0000000000000002, 0, 0, 1.0000000000000002, 0, -1.4210854715202004e-14)"/>
  <path d="M 146.31 199.195 C 146.548 199.124 146.723 198.906 146.728 198.643 C 146.737 198.052 146.815 197.461 146.959 196.886 C 147.094 196.346 147.286 195.819 147.531 195.319 C 147.751 194.871 148.014 194.443 148.313 194.046 C 148.614 193.644 148.955 193.271 149.327 192.937 C 149.8 192.51 150.324 192.142 150.885 191.844 C 151.869 191.32 152.982 191.007 154.094 190.939 C 154.416 190.921 154.663 190.642 154.643 190.318 C 154.623 189.996 154.346 189.75 154.023 189.77 C 152.744 189.847 151.466 190.208 150.335 190.81 C 149.69 191.154 149.086 191.576 148.543 192.067 C 148.116 192.452 147.724 192.88 147.377 193.341 C 147.034 193.798 146.733 194.29 146.481 194.803 C 146.199 195.377 145.979 195.983 145.824 196.602 C 145.659 197.264 145.57 197.943 145.559 198.624 C 145.554 198.947 145.812 199.213 146.135 199.218 C 146.195 199.22 146.254 199.212 146.31 199.195 Z" fill="url(#paint8_linear_4164_431773)" id="object-8" transform="matrix(1.0000000000000002, 0, 0, 1.0000000000000002, 0, -1.4210854715202004e-14)"/>
  <path d="M 154.792 202.803 L 154.792 202.602 C 155.883 202.385 156.706 201.423 156.706 200.267 C 156.706 198.952 155.64 197.886 154.325 197.886 C 153.01 197.886 151.944 198.952 151.944 200.267 C 151.944 201.422 152.767 202.385 153.859 202.602 L 153.859 202.803 C 153.859 202.894 153.932 202.967 154.024 202.967 L 154.067 202.967 L 154.067 204.118 L 153.471 204.118 L 153.925 205.131 L 153.697 209.32 L 154.378 210.04 L 155.045 209.266 L 154.751 205.122 L 155.179 204.118 L 154.643 204.118 L 154.643 202.966 C 154.726 202.958 154.792 202.888 154.792 202.803 Z" fill="white" id="object-9" transform="matrix(1.0000000000000002, 0, 0, 1.0000000000000002, 0, -1.4210854715202004e-14)"/>
  <path d="M 153.251 199.287 C 153.274 199.259 153.299 199.232 153.303 199.192 C 153.31 199.121 153.241 199.07 153.173 199.096 C 153.143 199.107 153.121 199.129 153.101 199.154 C 152.641 199.717 152.541 200.336 152.817 201.01 C 152.86 201.118 152.912 201.152 152.974 201.127 C 153.039 201.101 153.045 201.044 152.999 200.929 C 152.758 200.333 152.838 199.784 153.251 199.287 Z" fill="url(#paint9_linear_4164_431773)" id="object-10" transform="matrix(1.0000000000000002, 0, 0, 1.0000000000000002, 0, -1.4210854715202004e-14)"/>
  <path d="M 154.185 198.56 C 154.011 198.584 153.842 198.627 153.683 198.7 C 153.649 198.716 153.616 198.732 153.595 198.764 C 153.574 198.797 153.571 198.832 153.591 198.867 C 153.609 198.899 153.639 198.914 153.682 198.912 C 153.695 198.907 153.715 198.903 153.733 198.895 C 153.887 198.822 154.05 198.779 154.218 198.754 C 154.284 198.745 154.332 198.717 154.328 198.641 C 154.323 198.581 154.267 198.549 154.185 198.56 Z" fill="url(#paint10_linear_4164_431773)" id="object-11" transform="matrix(1.0000000000000002, 0, 0, 1.0000000000000002, 0, -1.4210854715202004e-14)"/>
  <path d="M 180.713 206.363 C 179.066 206.363 177.671 205.952 176.531 205.134 C 175.39 204.316 174.6 203.311 174.162 202.122 L 177.321 201.147 C 177.604 201.839 178.052 202.395 178.676 202.824 C 179.3 203.253 180.051 203.468 180.928 203.468 C 181.581 203.468 182.107 203.341 182.507 203.078 C 182.907 202.815 183.111 202.503 183.111 202.142 C 183.111 201.567 182.614 201.118 181.61 200.796 L 178.013 199.685 C 177.038 199.383 176.259 198.906 175.673 198.262 C 175.089 197.618 174.806 196.858 174.815 195.981 C 174.806 194.82 175.293 193.836 176.277 193.027 C 177.262 192.218 178.5 191.808 179.991 191.808 C 181.464 191.808 182.77 192.158 183.9 192.87 C 185.031 193.582 185.791 194.449 186.172 195.473 L 183.121 196.369 C 182.838 195.872 182.418 195.473 181.863 195.161 C 181.308 194.849 180.693 194.692 180.02 194.692 C 179.465 194.692 179.017 194.8 178.675 195.014 C 178.334 195.228 178.168 195.501 178.168 195.833 C 178.168 196.311 178.48 196.641 179.104 196.827 L 182.623 197.948 C 183.842 198.328 184.787 198.806 185.451 199.381 C 186.113 199.956 186.445 200.784 186.445 201.866 C 186.445 203.134 185.919 204.186 184.857 205.034 C 183.794 205.883 182.41 206.301 180.704 206.301 L 180.713 206.363 Z" fill="#3D3B3B" id="object-12" transform="matrix(1.0000000000000002, 0, 0, 1.0000000000000002, 0, -1.4210854715202004e-14)"/>
  <path d="M 203.994 196.708 C 204.726 197.478 205.096 198.58 205.096 200.013 L 205.096 206.017 L 201.908 206.017 L 201.908 200.724 C 201.908 199.252 201.372 198.511 200.29 198.511 C 199.111 198.511 198.516 199.33 198.506 200.967 L 198.506 206.017 L 195.318 206.017 L 195.318 200.724 C 195.318 199.252 194.781 198.511 193.699 198.511 C 192.52 198.511 191.925 199.33 191.925 200.967 L 191.925 206.017 L 188.728 206.017 L 188.728 195.841 L 191.925 195.841 L 191.925 196.835 C 192.657 195.987 193.593 195.558 194.733 195.558 C 196.078 195.558 197.062 196.006 197.686 196.913 C 198.535 196.006 199.655 195.558 201.04 195.558 C 202.279 195.557 203.263 195.938 203.994 196.708 Z" fill="#3D3B3B" id="object-13" transform="matrix(1.0000000000000002, 0, 0, 1.0000000000000002, 0, -1.4210854715202004e-14)"/>
  <path d="M 212.22 206.301 C 210.835 206.301 209.666 205.784 208.711 204.76 C 207.756 203.737 207.278 202.46 207.278 200.929 C 207.278 199.399 207.756 198.122 208.711 197.098 C 209.666 196.074 210.835 195.558 212.22 195.558 C 213.429 195.558 214.404 195.967 215.154 196.777 L 215.154 195.841 L 218.352 195.841 L 218.352 206.018 L 215.154 206.018 L 215.154 205.082 C 214.384 205.891 213.41 206.301 212.229 206.301 L 212.22 206.301 Z M 212.795 203.474 C 213.507 203.474 214.092 203.24 214.55 202.762 C 215.008 202.284 215.242 201.671 215.242 200.919 C 215.242 200.169 215.008 199.564 214.55 199.096 C 214.092 198.629 213.508 198.394 212.805 198.394 C 212.113 198.394 211.548 198.628 211.099 199.096 C 210.651 199.564 210.426 200.168 210.426 200.919 C 210.426 201.68 210.651 202.294 211.099 202.762 C 211.548 203.23 212.112 203.464 212.805 203.464 L 212.795 203.474 Z" fill="#3D3B3B" id="object-14" transform="matrix(1.0000000000000002, 0, 0, 1.0000000000000002, 0, -1.4210854715202004e-14)"/>
  <path d="M 224.436 197.213 C 224.739 196.657 225.167 196.239 225.713 195.965 C 226.259 195.692 226.892 195.604 227.624 195.692 L 227.624 198.685 C 226.532 198.499 225.733 198.656 225.216 199.152 C 224.699 199.65 224.445 200.527 224.445 201.784 L 224.445 206.034 L 221.248 206.034 L 221.248 195.859 L 224.445 195.859 L 224.445 197.233 L 224.436 197.213 Z" fill="#3D3B3B" id="object-15" transform="matrix(1.0000000000000002, 0, 0, 1.0000000000000002, 0, -1.4210854715202004e-14)"/>
  <path d="M 236.809 205.687 C 235.971 206.018 235.142 206.183 234.313 206.183 C 233.114 206.183 232.217 205.842 231.613 205.16 C 231.009 204.477 230.706 203.542 230.706 202.343 L 230.706 198.629 L 229.127 198.629 L 229.127 195.841 L 230.706 195.841 L 230.706 192.644 L 233.903 192.644 L 233.903 195.841 L 236.643 195.841 L 236.643 198.629 L 233.903 198.629 L 233.903 202.343 C 233.903 203.055 234.254 203.405 234.956 203.405 C 235.347 203.405 235.707 203.318 236.038 203.142 L 236.809 205.687 Z" fill="#3D3B3B" id="object-16" transform="matrix(1.0000000000000002, 0, 0, 1.0000000000000002, 0, -1.4210854715202004e-14)"/>
  <text style="fill: url(&quot;#gradient-4-1&quot;); fill-rule: evenodd; font-family: Cooper; font-size: 28px; paint-order: stroke markers; white-space: pre;" transform="matrix(0.4851570129394532, 0, 0, 0.7168279886245729, 144.45903230397448, 64.95245458114823)" x="196.266" y="196.52" id="object-17">Attendance</text>
</svg>